<?xml version="1.0" encoding="UTF-8" standalone="no"?>
<!-- Created with Inkscape (http://www.inkscape.org/) -->

<svg
   width="136.40741mm"
   height="136.40741mm"
   viewBox="0 0 136.40741 136.40741"
   version="1.1"
   id="svg1"
   xml:space="preserve"
   xmlns="http://www.w3.org/2000/svg"
   xmlns:svg="http://www.w3.org/2000/svg"><defs
     id="defs1" /><g
     id="layer2"
     transform="translate(-34.855335,-81.25383)"><g
       id="g2"
       transform="translate(-0.05645919,10.289838)"><g
         id="g69"
         transform="translate(0,-12.090246)"
         style="display:inline;paint-order:stroke markers fill"><g
           id="g1"
           transform="translate(0.50404174)"
           style="stroke:#ffffff;stroke-width:3.6;stroke-dasharray:none;stroke-opacity:1;paint-order:stroke markers fill"><g
             id="g63"
             transform="matrix(0.34495166,-0.35592429,0.35059406,0.35019612,182.74689,81.897068)"
             style="display:inline;fill:#60a5fa;fill-opacity:1;stroke:#ffffff;stroke-width:7.26442;stroke-dasharray:none;stroke-opacity:1;paint-order:stroke markers fill"><path
               style="display:none;fill:#08bd7e;fill-opacity:1;stroke:#ffffff;stroke-width:7.26442;stroke-dasharray:none;stroke-opacity:1;paint-order:stroke markers fill"
               d="m -221.61316,69.001083 c -0.8196,-1.981637 -1.75193,-4.21646 -2.07181,-4.966299 -0.31988,-0.749832 -0.58575,-1.427877 -0.59076,-1.506783 -0.0103,-0.157605 8.06973,-0.265812 8.20467,-0.109754 0.046,0.05319 -0.1228,0.5825 -0.37502,1.176304 -0.25231,0.593699 -1.18282,2.863702 -2.06783,5.044436 l -1.60909,3.964984 z m 1.40342,-8.519312 -4.9239,0.02869 -4.55277,-10.970198 c -2.50404,-6.033611 -4.55925,-11.03385 -4.5671,-11.111606 -0.008,-0.07789 1.67487,-0.811623 3.73935,-1.630844 l 3.75364,-1.489392 3.31421,1.635162 c 1.82279,0.899338 3.5233,1.590756 3.77883,1.536436 0.25552,-0.05439 1.69656,-0.808919 3.20224,-1.676924 l 2.73757,-1.578212 3.76421,1.437932 c 2.07031,0.790884 3.75919,1.502869 3.75305,1.582164 -0.0152,0.196542 -8.85256,21.944842 -8.97663,22.091076 -0.0544,0.06403 -2.31456,0.129492 -5.02269,0.145442 z m 10.86138,-25.711244 -3.39696,-1.362985 -0.13783,-43.472093 -0.1378,-43.472085 3.49699,-0.02294 3.49704,-0.02293 0.14033,44.7358189 c 0.0773,24.6047031 0.0943,44.7909421 0.0378,44.8582991 -0.0566,0.06731 -1.63118,-0.490856 -3.49951,-1.240486 z m -7.04669,-0.183177 c -3.97286,2.207039 -3.15568,2.13774 -6.39362,0.541979 -1.56781,-0.772678 -2.93267,-1.499814 -3.033,-1.615873 -0.10036,-0.116104 -0.24393,-19.730123 -0.31909,-43.586838 l -0.13672,-43.375838 5.75424,-0.0384 5.75424,-0.0384 0.12732,43.5341746 0.12725,43.5341244 z m -14.77223,0.3695 c -1.78545,0.731207 -3.2857,1.264288 -3.33387,1.184641 -0.0479,-0.07965 -0.15254,-20.257122 -0.23192,-44.8388521 l -0.14435,-44.6940719 3.49831,-0.02294 3.49832,-0.02293 0.13754,43.375525 c 0.0757,23.85652 0.0666,43.446199 -0.0201,43.532652 -0.0862,0.0868 -1.61848,0.75539 -3.40393,1.486589 z"
               id="path62" /><path
               style="display:inline;fill:#08bd7e;fill-opacity:1;stroke:#ffffff;stroke-width:7.26442;stroke-dasharray:none;stroke-opacity:1;paint-order:stroke markers fill"
               d="m -215.96828,-119.59329 4.48263,4.49764 -4.49764,4.48261 -4.49762,4.48261 -4.48262,-4.49762 -4.48262,-4.49762 4.49764,-4.48263 4.49762,-4.48261 z m -5.99683,5.97683 1.49421,1.4992 1.49921,-1.4942 1.4992,-1.49421 -1.4942,-1.4992 -1.49421,-1.49921 -1.4992,1.4942 -1.49921,1.4942 z m -0.89765,11.09309 c 1.29572,1.30005 1.55548,1.45995 2.37337,1.46134 0.82742,10e-4 1.07242,-0.15193 2.47196,-1.5468 l 1.55351,-1.54832 -0.0185,12.345706 c -0.0102,6.79014 -0.0687,12.395732 -0.13004,12.456872 -0.0613,0.06113 -0.42247,-0.0057 -0.80252,-0.148557 -0.38002,-0.142852 -1.52202,-0.291798 -2.53778,-0.330992 -1.01574,-0.0392 -2.4236,0.05442 -3.12857,0.208021 l -1.28178,0.279286 0.0227,-12.31819 0.0227,-12.318186 z m -17.77469,31.265151 c 4.43972,0.02252 8.01022,0.178622 7.93443,0.346902 -0.0758,0.168279 -0.23617,0.915031 -0.35642,1.659453 l -0.21864,1.353498 -4.06154,-4.81e-4 -4.06153,-4.82e-4 -0.004,2.145401 -0.004,2.145399 4.36452,0.04019 4.36452,0.0402 0.64934,1.594142 c 0.52719,1.294247 0.97151,1.922677 2.36192,3.340487 1.7002,1.733795 1.70918,1.749749 1.24415,2.215373 -0.36713,0.367315 -3.28306,0.463331 -13.4665,0.442735 l -12.99806,-0.02629 2.84504,-7.2604 c 1.56478,-3.993219 2.95501,-7.444153 3.08941,-7.668744 0.17249,-0.288233 2.61841,-0.396289 8.31655,-0.367384 z m 15.68379,-3.191317 c 0.39031,-0.226809 1.15646,-0.554399 1.70256,-0.72797 0.5461,-0.173577 1.55157,-0.381644 2.23439,-0.462386 0.75232,-0.08896 1.9753,0.104373 3.10391,0.490675 1.64416,0.562758 2.03721,0.814276 3.3539,2.146132 1.33356,1.349357 1.54887,1.700371 2.03423,3.321641 0.29851,0.997131 0.50198,2.292086 0.45212,2.87768 -0.0498,0.585592 -0.33728,1.744854 -0.63876,2.576142 -0.43674,1.204217 -0.83439,1.797218 -1.95637,2.917417 -1.21523,1.212583 -1.66415,1.492561 -3.27222,2.036652 -1.12734,0.38143 -2.35473,0.571317 -3.10572,0.480478 -0.68294,-0.08262 -1.81649,-0.333801 -2.51901,-0.558173 -1.01474,-0.324095 -1.58645,-0.714122 -2.78128,-1.897414 -1.24311,-1.231113 -1.59983,-1.755928 -2.05646,-3.025683 -0.30385,-0.844929 -0.55139,-2.175016 -0.55009,-2.955748 0.001,-0.78073 0.25214,-2.087664 0.55742,-2.904295 0.34493,-0.92275 0.967,-1.942416 1.64338,-2.693772 0.5986,-0.664946 1.40772,-1.394545 1.798,-1.621376 z m 0.48803,5.672763 c -0.19635,0.475947 -0.31558,1.356172 -0.26493,1.956042 0.0507,0.599877 0.32886,1.438084 0.61828,1.862677 0.28937,0.424635 0.89578,1.02571 1.34746,1.335833 0.51544,0.353857 1.33914,0.564701 2.21189,0.566159 0.87276,0.0015 1.69717,-0.206623 2.21379,-0.558755 0.45273,-0.308602 1.07688,-0.930663 1.38699,-1.382361 0.35385,-0.515434 0.56469,-1.339146 0.56614,-2.211897 0.001,-0.872753 -0.20662,-1.697164 -0.55874,-2.213778 -0.3086,-0.452734 -0.90769,-1.06111 -1.33133,-1.351929 -0.42359,-0.290862 -1.26037,-0.571807 -1.85942,-0.624395 -0.59905,-0.05259 -1.458,0.04868 -1.90878,0.225038 -0.45077,0.176365 -1.09966,0.593222 -1.44197,0.926351 -0.34232,0.333118 -0.78304,0.995097 -0.9794,1.471043 z m 24.20152,-2.427788 8.01757,0.01665 0.73024,1.817625 c 0.40164,0.999687 1.74551,4.453446 2.98636,7.675011 l 2.25612,5.8574 -12.9838,-0.02369 c -10.13907,-0.0185 -13.08564,-0.126361 -13.44866,-0.49228 -0.46064,-0.465022 -0.45049,-0.483163 1.25354,-2.209208 1.39512,-1.413185 1.84156,-2.040095 2.37308,-3.332571 l 0.65467,-1.591963 4.36462,-0.02561 4.36462,-0.0256 0.004,-2.145402 0.004,-2.145394 -4.0415,-0.01303 -4.04149,-0.01304 -0.3395,-1.576838 c -0.18673,-0.867261 -0.3015,-1.624511 -0.25505,-1.682777 0.0468,-0.0579 3.69235,-0.09844 8.10201,-0.08928 z"
               id="path63" /><path
               style="fill:#08bd7e;fill-opacity:1;stroke-width:7.52318"
               d="m -208.43382,-51.413745 c -0.31719,-0.122781 -5.8003,-0.260978 -12.18466,-0.307105 -12.22604,-0.08833 -12.30227,-0.0819 -12.84457,1.083798 -0.13567,0.291648 -0.26068,2.044314 -0.27779,3.894814 l -0.0308,3.36454 2.81121,0.06206 c 2.49176,0.055 2.86396,0.115671 3.27545,0.533882 0.66368,0.674548 0.85327,1.345226 0.58692,2.076317 -0.45593,1.251508 -0.76612,1.352513 -4.12382,1.342849 l -2.57167,-0.0074 -0.0242,3.641265 -0.0242,3.641264 5.36314,0.06386 c 2.94972,0.03513 5.60838,0.17713 5.90811,0.315578 1.05546,0.487506 1.48445,1.752738 0.93609,2.760875 -0.52558,0.966288 -1.10007,1.053441 -6.74663,1.023526 l -5.4885,-0.02908 -0.0242,3.638717 -0.0241,3.638715 2.71579,0.03114 c 3.0063,0.03448 3.53964,0.222204 3.94623,1.389048 0.27036,0.775856 0.0825,1.435412 -0.60009,2.107019 -0.41704,0.410334 -0.79,0.463919 -3.28205,0.471552 l -2.81155,0.0086 -0.0212,3.637814 -0.0212,3.637813 5.31794,0.035842 c 2.92487,0.019711 5.60274,0.1512603 5.95082,0.2923247 1.28929,0.5225016 1.56668,2.1916387 0.53322,3.2084655 -0.52785,0.5193339 -0.69464,0.5325774 -6.18672,0.4912098 l -5.64428,-0.042515 -0.0241,3.6311589 -0.0241,3.6311589 2.70035,0.06273 c 2.69746,0.062663 3.26617,0.218906 3.82121,1.0498156 0.3377,0.5055625 0.33059,1.563424 -0.0139,2.0625031 -0.56614,0.8202528 -1.13687,0.9656651 -3.83484,0.9770449 l -2.70085,0.011387 -0.0241,3.6311589 -0.0241,3.6311587 5.64412,0.06478 c 5.451,0.06256 5.66202,0.08299 6.16777,0.597013 0.63103,0.641344 0.78681,1.381017 0.45679,2.168757 -0.48744,1.163453 -0.84629,1.227182 -6.74565,1.197927 l -5.55467,-0.02754 -0.0172,3.63596 -0.0172,3.63596 2.80278,0.05506 c 2.48911,0.04889 2.85485,0.107972 3.268,0.527885 0.66466,0.675525 0.85439,1.345904 0.58793,2.07732 -0.45593,1.251508 -0.76612,1.352512 -4.12382,1.342848 l -2.57168,-0.0074 -0.0241,3.638596 -0.0241,3.638597 5.48818,0.07526 c 5.64625,0.07742 6.21948,0.175486 6.73202,1.151641 0.53474,1.018432 0.0889,2.275349 -0.97307,2.74273 -0.30156,0.132731 -2.96178,0.224185 -5.9116,0.203231 l -5.36332,-0.0381 -0.0242,3.641384 -0.0242,3.641383 2.7158,0.03114 c 3.00629,0.03446 3.53963,0.222202 3.94624,1.389045 0.27034,0.775857 0.0825,1.435413 -0.6001,2.107021 -0.41704,0.410335 -0.79,0.463918 -3.2822,0.471552 l -2.81168,0.0086 -0.0145,3.364708 c -0.0142,3.492643 0.12927,4.21001 0.95554,4.762565 0.66673,0.445863 23.65058,0.723373 24.51815,0.296037 0.41233,-0.203097 0.66189,-0.448382 0.87054,-0.855588 0.36529,-0.712923 1.12928,-108.400363 0.77467,-109.188705 -0.2928,-0.650858 -0.42206,-0.770273 -1.13078,-1.044613 z"
               id="path6" /></g><g
             id="g68"
             transform="matrix(0.35059406,0.34495166,-0.34495166,0.35059406,176.35538,236.31804)"
             style="display:inline;fill:#a855f7;fill-opacity:1;stroke:#ffffff;stroke-width:7.72607;stroke-dasharray:none;stroke-opacity:1;paint-order:stroke fill markers"><path
               style="fill:#a855f7;fill-opacity:1;stroke:#ffffff;stroke-width:2.03318;stroke-dasharray:none;stroke-opacity:1;paint-order:markers fill stroke"
               d="m -221.61316,69.001083 c -0.8196,-1.981637 -1.75193,-4.21646 -2.07181,-4.966299 -0.31988,-0.749832 -0.58575,-1.427877 -0.59076,-1.506783 -0.0103,-0.157605 8.06973,-0.265812 8.20467,-0.109754 0.046,0.05319 -0.1228,0.5825 -0.37502,1.176304 -0.25231,0.593699 -1.18282,2.863702 -2.06783,5.044436 l -1.60909,3.964984 z m 1.40342,-8.519312 -4.9239,0.02869 -4.55277,-10.970198 c -2.50404,-6.033611 -4.55925,-11.03385 -4.5671,-11.111606 -0.008,-0.07789 1.67487,-0.811623 3.73935,-1.630844 l 3.75364,-1.489392 3.31421,1.635162 c 1.82279,0.899338 3.5233,1.590756 3.77883,1.536436 0.25552,-0.05439 1.69656,-0.808919 3.20224,-1.676924 l 2.73757,-1.578212 3.76421,1.437932 c 2.07031,0.790884 3.75919,1.502869 3.75305,1.582164 -0.0152,0.196542 -8.85256,21.944842 -8.97663,22.091076 -0.0544,0.06403 -2.31456,0.129492 -5.02269,0.145442 z m 10.86138,-25.711244 -3.39696,-1.362985 -0.13783,-43.472093 -0.1378,-43.472085 3.49699,-0.02294 3.49704,-0.02293 0.14033,44.7358189 c 0.0773,24.6047031 0.0943,44.7909421 0.0378,44.8582991 -0.0566,0.06731 -1.63118,-0.490856 -3.49951,-1.240486 z m -7.04669,-0.183177 c -3.97286,2.207039 -3.15568,2.13774 -6.39362,0.541979 -1.56781,-0.772678 -2.93267,-1.499814 -3.033,-1.615873 -0.10036,-0.116104 -0.24393,-19.730123 -0.31909,-43.586838 l -0.13672,-43.375838 5.75424,-0.0384 5.75424,-0.0384 0.12732,43.5341746 0.12725,43.5341244 z m -14.77223,0.3695 c -1.78545,0.731207 -3.2857,1.264288 -3.33387,1.184641 -0.0479,-0.07965 -0.15254,-20.257122 -0.23192,-44.8388521 l -0.14435,-44.6940719 3.49831,-0.02294 3.49832,-0.02293 0.13754,43.375525 c 0.0757,23.85652 0.0666,43.446199 -0.0201,43.532652 -0.0862,0.0868 -1.61848,0.75539 -3.40393,1.486589 z"
               id="path67" /><path
               style="fill:#a855f7;fill-opacity:1;stroke:#ffffff;stroke-width:7.72607;stroke-dasharray:none;stroke-opacity:1;paint-order:stroke fill markers"
               d="m -215.96828,-119.59329 4.48263,4.49764 -4.49764,4.48261 -4.49762,4.48261 -4.48262,-4.49762 -4.48262,-4.49762 4.49764,-4.48263 4.49762,-4.48261 z m -5.99683,5.97683 1.49421,1.4992 1.49921,-1.4942 1.4992,-1.49421 -1.4942,-1.4992 -1.49421,-1.49921 -1.4992,1.4942 -1.49921,1.4942 z m -0.89765,11.09309 c 1.29572,1.30005 1.55548,1.45995 2.37337,1.46134 0.82742,10e-4 1.07242,-0.15193 2.47196,-1.5468 l 1.55351,-1.54832 -0.0185,12.345706 c -0.0102,6.79014 -0.0687,12.395732 -0.13004,12.456872 -0.0613,0.06113 -0.42247,-0.0057 -0.80252,-0.148557 -0.38002,-0.142852 -1.52202,-0.291798 -2.53778,-0.330992 -1.01574,-0.0392 -2.4236,0.05442 -3.12857,0.208021 l -1.28178,0.279286 0.0227,-12.31819 0.0227,-12.318186 z m -17.77469,31.265151 c 4.43972,0.02252 8.01022,0.178622 7.93443,0.346902 -0.0758,0.168279 -0.23617,0.915031 -0.35642,1.659453 l -0.21864,1.353498 -4.06154,-4.81e-4 -4.06153,-4.82e-4 -0.004,2.145401 -0.004,2.145399 4.36452,0.04019 4.36452,0.0402 0.64934,1.594142 c 0.52719,1.294247 0.97151,1.922677 2.36192,3.340487 1.7002,1.733795 1.70918,1.749749 1.24415,2.215373 -0.36713,0.367315 -3.28306,0.463331 -13.4665,0.442735 l -12.99806,-0.02629 2.84504,-7.2604 c 1.56478,-3.993219 2.95501,-7.444153 3.08941,-7.668744 0.17249,-0.288233 2.61841,-0.396289 8.31655,-0.367384 z m 15.68379,-3.191317 c 0.39031,-0.226809 1.15646,-0.554399 1.70256,-0.72797 0.5461,-0.173577 1.55157,-0.381644 2.23439,-0.462386 0.75232,-0.08896 1.9753,0.104373 3.10391,0.490675 1.64416,0.562758 2.03721,0.814276 3.3539,2.146132 1.33356,1.349357 1.54887,1.700371 2.03423,3.321641 0.29851,0.997131 0.50198,2.292086 0.45212,2.87768 -0.0498,0.585592 -0.33728,1.744854 -0.63876,2.576142 -0.43674,1.204217 -0.83439,1.797218 -1.95637,2.917417 -1.21523,1.212583 -1.66415,1.492561 -3.27222,2.036652 -1.12734,0.38143 -2.35473,0.571317 -3.10572,0.480478 -0.68294,-0.08262 -1.81649,-0.333801 -2.51901,-0.558173 -1.01474,-0.324095 -1.58645,-0.714122 -2.78128,-1.897414 -1.24311,-1.231113 -1.59983,-1.755928 -2.05646,-3.025683 -0.30385,-0.844929 -0.55139,-2.175016 -0.55009,-2.955748 0.001,-0.78073 0.25214,-2.087664 0.55742,-2.904295 0.34493,-0.92275 0.967,-1.942416 1.64338,-2.693772 0.5986,-0.664946 1.40772,-1.394545 1.798,-1.621376 z m 0.48803,5.672763 c -0.19635,0.475947 -0.31558,1.356172 -0.26493,1.956042 0.0507,0.599877 0.32886,1.438084 0.61828,1.862677 0.28937,0.424635 0.89578,1.02571 1.34746,1.335833 0.51544,0.353857 1.33914,0.564701 2.21189,0.566159 0.87276,0.0015 1.69717,-0.206623 2.21379,-0.558755 0.45273,-0.308602 1.07688,-0.930663 1.38699,-1.382361 0.35385,-0.515434 0.56469,-1.339146 0.56614,-2.211897 0.001,-0.872753 -0.20662,-1.697164 -0.55874,-2.213778 -0.3086,-0.452734 -0.90769,-1.06111 -1.33133,-1.351929 -0.42359,-0.290862 -1.26037,-0.571807 -1.85942,-0.624395 -0.59905,-0.05259 -1.458,0.04868 -1.90878,0.225038 -0.45077,0.176365 -1.09966,0.593222 -1.44197,0.926351 -0.34232,0.333118 -0.78304,0.995097 -0.9794,1.471043 z m 24.20152,-2.427788 8.01757,0.01665 0.73024,1.817625 c 0.40164,0.999687 1.74551,4.453446 2.98636,7.675011 l 2.25612,5.8574 -12.9838,-0.02369 c -10.13907,-0.0185 -13.08564,-0.126361 -13.44866,-0.49228 -0.46064,-0.465022 -0.45049,-0.483163 1.25354,-2.209208 1.39512,-1.413185 1.84156,-2.040095 2.37308,-3.332571 l 0.65467,-1.591963 4.36462,-0.02561 4.36462,-0.0256 0.004,-2.145402 0.004,-2.145394 -4.0415,-0.01303 -4.04149,-0.01304 -0.3395,-1.576838 c -0.18673,-0.867261 -0.3015,-1.624511 -0.25505,-1.682777 0.0468,-0.0579 3.69235,-0.09844 8.10201,-0.08928 z"
               id="path68" /></g></g><path
           style="display:inline;fill:#4b5563;fill-opacity:1;stroke:#ffffff;stroke-width:2.3;stroke-dasharray:none;stroke-opacity:1;paint-order:stroke markers fill"
           d="m 119.01393,172.79162 c -0.14235,-0.072 -0.30308,-0.25684 -0.35719,-0.41069 -0.0765,-0.21726 0.0418,-0.90948 0.52893,-3.09959 l 0.62732,-2.81986 -0.18857,-0.54577 c -0.1037,-0.30018 -0.19008,-0.82408 -0.19194,-1.16423 -0.001,-0.34016 0.0703,-0.87948 0.16022,-1.19849 0.09,-0.31902 0.29115,-0.767 0.447,-0.99551 0.15586,-0.22851 0.43619,-0.51845 0.62299,-0.64433 0.18679,-0.12587 0.38469,-0.24388 0.43977,-0.26226 0.0628,-0.0209 0.0901,-2.07449 0.0731,-5.5099 l -0.0269,-5.47652 -8.8063,3.72826 c -6.26756,2.65344 -8.92008,3.72911 -9.20097,3.7312 -0.28687,6.6e-4 -2.27957,-0.79174 -7.295153,-2.90639 -3.79526,-1.60014 -8.837199,-3.72871 -11.204326,-4.73016 -2.367123,-1.00145 -4.393675,-1.90209 -4.503436,-2.00141 -0.109777,-0.0993 -0.252898,-0.34215 -0.318048,-0.53958 -0.06519,-0.19742 -0.09018,-0.50831 -0.05557,-0.69085 0.03458,-0.18255 0.168172,-0.46277 0.296901,-0.62272 0.188194,-0.23379 2.42996,-1.21284 11.437338,-4.99506 8.345361,-3.5042 11.309614,-4.70499 11.620134,-4.70721 0.31998,-0.003 2.9844,1.08357 11.4638,4.6719 6.07583,2.57118 11.14849,4.74101 11.27259,4.82183 0.12411,0.0808 0.30341,0.34131 0.39844,0.57881 0.10798,0.26985 0.14882,0.55959 0.10891,0.77236 -0.0351,0.18729 -0.17653,0.4744 -0.31423,0.63803 -0.17251,0.20504 -0.70575,0.48737 -1.7154,0.90829 l -1.4651,0.61077 v 5.92124 5.92123 l 0.40441,0.36536 c 0.22242,0.20095 0.5116,0.61118 0.64262,0.91162 0.16008,0.36709 0.25375,0.82527 0.28558,1.39686 0.035,0.62588 -3.4e-4,1.00287 -0.13387,1.42686 l -0.18126,0.57623 0.81339,2.87332 0.81339,2.87332 -0.21245,0.28535 c -0.11685,0.15696 -0.33003,0.32728 -0.47372,0.37849 -0.191,0.0681 -0.35632,0.0429 -0.61466,-0.0937 -0.19436,-0.10274 -0.54097,-0.28533 -0.77025,-0.40578 -0.33966,-0.17843 -0.6025,-0.21898 -1.41941,-0.21898 -0.95602,0 -1.03728,0.0182 -1.75073,0.39081 -0.41148,0.21495 -0.80449,0.39013 -0.87334,0.38928 -0.0689,-6.6e-4 -0.24164,-0.0604 -0.38398,-0.13247 z m -18.08328,-4.45663 c -0.51587,-0.053 -1.441033,-0.19192 -2.055922,-0.30883 -0.614891,-0.11689 -1.529385,-0.3308 -2.032227,-0.47534 -0.502829,-0.14454 -1.35976,-0.42778 -1.904296,-0.62943 -0.54453,-0.20164 -1.53538,-0.63826 -2.201892,-0.97025 -0.666509,-0.33199 -1.609841,-0.86304 -2.096293,-1.18013 -0.486441,-0.31709 -1.013531,-0.74575 -1.171296,-0.95259 -0.157759,-0.20684 -0.349636,-0.55203 -0.426377,-0.76709 -0.107622,-0.30155 -0.14059,-1.36554 -0.144122,-4.64999 -0.004,-4.00761 0.0065,-4.25594 0.177804,-4.20733 0.100315,0.0284 3.090016,1.28811 6.643798,2.79933 l 6.461423,2.74769 0.93795,6.6e-4 0.93795,6.6e-4 6.57091,-2.7878 c 3.614,-1.53328 6.60563,-2.7878 6.64806,-2.7878 0.0424,0 0.0635,1.98143 0.0467,4.40316 -0.0295,4.28302 -0.0365,4.41452 -0.25525,4.82001 -0.12372,0.22928 -0.35821,0.54098 -0.52109,0.69266 -0.16286,0.15168 -0.62441,0.48587 -1.02564,0.74263 -0.40125,0.25676 -1.26885,0.73714 -1.928,1.06752 -0.65919,0.33037 -1.69092,0.78597 -2.29278,1.01248 -0.60185,0.22648 -1.7044,0.56827 -2.45015,0.75952 -0.74573,0.19124 -1.89472,0.42378 -2.55329,0.51675 -0.65858,0.093 -1.92435,0.18723 -2.81278,0.20947 -0.88844,0.0222 -2.03743,-0.003 -2.55331,-0.0559 z"
           id="path5" /></g></g></g></svg>
