<?xml version="1.0" encoding="UTF-8" standalone="no"?>
<!-- Created with Inkscape (http://www.inkscape.org/) -->

<svg
   width="136.40741mm"
   height="136.40741mm"
   viewBox="0 0 136.40741 136.40741"
   version="1.1"
   id="svg1"
   xml:space="preserve"
   inkscape:version="1.4.2 (ebf0e94, 2025-05-08)"
   sodipodi:docname="Logo.svg"
   inkscape:export-filename="Logo32.png"
   inkscape:export-xdpi="5.96"
   inkscape:export-ydpi="5.96"
   xmlns:inkscape="http://www.inkscape.org/namespaces/inkscape"
   xmlns:sodipodi="http://sodipodi.sourceforge.net/DTD/sodipodi-0.dtd"
   xmlns="http://www.w3.org/2000/svg"
   xmlns:svg="http://www.w3.org/2000/svg"><sodipodi:namedview
     id="namedview1"
     pagecolor="#ffffff"
     bordercolor="#999999"
     borderopacity="1"
     inkscape:showpageshadow="2"
     inkscape:pageopacity="0"
     inkscape:pagecheckerboard="0"
     inkscape:deskcolor="#d1d1d1"
     inkscape:document-units="mm"
     inkscape:zoom="1.2727922"
     inkscape:cx="194.45437"
     inkscape:cy="257.70114"
     inkscape:window-width="1536"
     inkscape:window-height="795"
     inkscape:window-x="0"
     inkscape:window-y="0"
     inkscape:window-maximized="1"
     inkscape:current-layer="layer2" /><defs
     id="defs1" /><g
     inkscape:label="Layer 1"
     inkscape:groupmode="layer"
     id="layer1"
     transform="translate(-34.855335,-81.25383)"><path
       style="fill:#000000"
       d="m -228.40006,251.3854 c -0.38316,0.16857 -5.28528,4.818 -10.89359,10.33205 -10.73988,10.55937 -10.80078,10.6313 -10.26249,12.12257 0.13467,0.37311 1.54613,2.01467 3.13656,3.64792 l 2.89169,2.96954 2.50571,-2.39147 c 2.22097,-2.11972 2.59822,-2.39047 3.31991,-2.38271 1.16404,0.0125 1.91123,0.43413 2.31317,1.30522 0.68806,1.49118 0.50515,1.84937 -2.43173,4.7621 l -2.24939,2.23089 3.13755,3.20578 3.13755,3.20577 4.733,-4.61007 c 2.60315,-2.53554 5.04516,-4.72436 5.42669,-4.86405 1.34347,-0.4919 2.81524,0.24141 3.21156,1.60015 0.37988,1.30233 -0.0456,1.87834 -4.99632,6.76468 l -4.81215,4.74954 3.13535,3.20353 3.13536,3.20354 2.39566,-2.3355 c 2.65193,-2.58532 3.27996,-2.88514 4.64684,-2.21841 0.90887,0.44332 1.31722,1.18357 1.30452,2.36478 -0.008,0.72169 -0.28656,1.09302 -2.45345,3.26778 l -2.44469,2.45357 3.13761,3.1997 3.13761,3.1997 4.66928,-4.59525 c 2.56811,-2.52739 5.0178,-4.74208 5.44376,-4.92154 1.57776,-0.66471 3.26771,0.55371 3.24848,2.34209 -0.01,0.9134 -0.14382,1.07009 -4.96977,5.81202 l -4.95967,4.87331 3.12884,3.19688 3.12884,3.19688 2.40961,-2.29444 c 2.40702,-2.29199 3.03858,-2.65011 4.2435,-2.40632 0.73313,0.14834 1.64465,1.07968 1.77719,1.81583 0.21782,1.20989 -0.15381,1.8336 -2.49703,4.19077 l -2.34574,2.3597 3.12884,3.19688 3.12885,3.19688 4.97887,-4.85371 c 4.80851,-4.68764 5.01028,-4.85337 5.89731,-4.84383 1.10674,0.0119 1.8843,0.52325 2.27985,1.4993 0.58419,1.44157 0.32649,1.80951 -4.84415,6.91633 l -4.86855,4.80847 3.13938,3.19471 3.13939,3.19471 2.49228,-2.39026 c 2.21336,-2.12276 2.5836,-2.38928 3.30822,-2.38149 1.16573,0.0125 1.91278,0.43376 2.3149,1.30524 0.68806,1.49118 0.50516,1.84936 -2.43173,4.7621 l -2.24938,2.23089 3.13525,3.20343 3.13525,3.20342 4.85195,-4.70888 c 4.99169,-4.84451 5.57672,-5.25746 6.87058,-4.84967 1.3499,0.42546 2.05138,1.91266 1.5307,3.24524 -0.14786,0.37843 -2.38871,2.7728 -4.97965,5.32081 l -4.7108,4.63275 3.13765,3.20588 3.13765,3.20588 2.39566,-2.33549 c 2.65193,-2.58533 3.27996,-2.88515 4.64685,-2.21841 0.90886,0.44332 1.31721,1.18356 1.30451,2.36477 -0.008,0.7217 -0.28657,1.09303 -2.45357,3.2679 l -2.44481,2.45369 19.98801,18.0584 c 3.19252,2.88432 3.76505,3.56941 4.96506,3.33381 0.96829,-0.19012 21.25499,-19.94329 21.64094,-21.07181 0.18343,-0.53634 0.18831,-0.96798 0.017,-1.50563 -0.29988,-0.94129 -110.13647,-110.88813 -111.12968,-111.26904 -0.82,-0.31449 -1.03634,-0.30646 -1.89247,0.0702 z"
       id="path3"
       sodipodi:nodetypes="cssscsssscccsssscccsscscccsscscccsssscccsssscccsssscccsssscccsscscssssscc" /><path
       style="fill:#000000"
       d="m -70.353413,-83.123038 0.918429,-0.002 6.579443,6.550753 6.579443,6.550753 0.002,0.918432 c 0.0019,0.895081 -0.07062,0.991352 -2.854162,3.787111 l -2.856172,2.868679 0.03618,15.808944 c 0.03553,15.522755 0.04968,15.822366 0.781065,16.550566 0.725161,0.721988 1.022587,0.741334 11.233702,0.730568 7.237325,-0.0077 10.614047,0.113668 10.892808,0.391166 0.222184,0.221225 2.200702,4.977182 4.396673,10.568798 2.195981,5.591615 3.969958,10.484714 3.942175,10.873543 -0.02777,0.388839 -0.31099,0.968599 -0.629357,1.288355 -0.50964,0.51188 -1.909631,0.585643 -11.711077,0.617074 -18.078324,1.341997 -36.0612,0.123338 -54.06884,0.105101 -6.004767,-3.5e-4 -11.172547,-0.136888 -11.483967,-0.303356 -0.31143,-0.166479 -0.70763,-0.641965 -0.88046,-1.056631 -0.21324,-0.511653 -0.15136,-1.210815 0.19257,-2.175684 0.27874,-0.781953 2.09118,-5.504474 4.02767,-10.494463 2.64571,-6.817536 3.66512,-9.159508 4.10115,-9.42186 0.33688,-0.202732 4.878777,-0.341459 10.829687,-0.330821 l 10.24945,0.01833 0.84938,-0.8531 0.84937,-0.853091 -0.0358,-15.621852 -0.0358,-15.621843 -2.96077,-2.94786 c -2.89355,-2.880934 -2.96079,-2.968761 -2.96278,-3.866302 l -0.002,-0.918423 6.55075,-6.579443 6.55075,-6.579443 z m -4.44962,18.548559 4.49993,4.480303 4.480307,-4.49993 4.480313,-4.49993 -4.49993,-4.480303 -4.49993,-4.480303 -4.4803,4.49993 -4.48032,4.49992 z m 5.973748,-5.999913 1.499983,1.493441 -1.493441,1.499983 -1.49343,1.499964 -1.49998,-1.493431 -1.49998,-1.493441 1.49343,-1.499974 1.49345,-1.499973 z m -3.597898,36.796909 c 0.80749,-0.150884 2.533451,-0.12954 3.835446,0.04741 l 2.36726,0.321759 -0.02345,-12.273895 -0.02346,-12.273914 -1.31009,1.220449 c -0.720536,0.671252 -1.535171,1.362632 -1.81028,1.536401 -0.275138,0.173729 -0.764536,0.316519 -1.087616,0.317224 -0.43171,8.13e-4 -0.9688,-0.378415 -2.02605,-1.431071 l -1.43864,-1.432353 0.0243,12.121136 0.0243,12.121146 z m -29.027837,16.235416 c -1.56836,4.057807 -2.85138,7.462371 -2.85115,7.565708 0,0.103355 5.802027,0.176102 12.892897,0.161777 10.07395,-0.02042 12.99482,-0.128738 13.36061,-0.495477 0.45991,-0.46109 0.44454,-0.490701 -0.87375,-1.683885 -0.78382,-0.709427 -1.64887,-1.751378 -2.08005,-2.505406 -0.40598,-0.709972 -0.90324,-1.675271 -1.105,-2.14509 l -0.36685,-0.854219 -4.29404,0.0032 -4.29403,0.0032 -0.005,-2.145267 -0.005,-2.145276 4.06151,-0.0152 4.06151,-0.0152 0.21342,-1.354324 c 0.11741,-0.744785 0.27492,-1.492152 0.35004,-1.660732 0.0751,-0.168569 -3.49212,-0.30857 -7.92723,-0.311133 -4.43511,-0.0025 -8.11403,0.04577 -8.17539,0.107398 -0.0614,0.06161 -1.39474,3.432062 -2.963097,7.489869 z m 23.596127,-6.95529 c -0.43886,0.870104 -0.6242,1.865652 -0.621,3.335573 0.003,1.518924 0.19222,2.473181 0.68668,3.468994 0.37516,0.755535 1.14616,1.835735 1.71334,2.400434 0.56718,0.564708 1.65072,1.330975 2.40789,1.702828 1.00185,0.492012 1.95389,0.674826 3.49675,0.671462 1.751031,-0.0038 2.408707,-0.157851 3.778213,-0.88484 0.911979,-0.484106 1.892461,-1.115535 2.178855,-1.40318 0.286394,-0.287655 0.913531,-1.270878 1.393651,-2.184964 0.720999,-1.37268 0.872133,-2.031015 0.868319,-3.782055 -0.0033,-1.542854 -0.190355,-2.494083 -0.686741,-3.493766 -0.375148,-0.755544 -1.146146,-1.835734 -1.713335,-2.400443 -0.567168,-0.564699 -1.620421,-1.315871 -2.340547,-1.669253 -0.756932,-0.371431 -2.051607,-0.680324 -3.068702,-0.732143 -0.967643,-0.04929 -2.303663,0.100917 -2.968923,0.333805 -0.66526,0.232887 -1.65256,0.716313 -2.19399,1.074267 -0.54143,0.357955 -1.28152,1.027067 -1.64465,1.486916 -0.36314,0.459829 -0.94174,1.39422 -1.28581,2.076365 z m 6.56524,-0.793091 c 0.59164,-0.158718 1.569371,-0.151323 2.172736,0.01608 0.635077,0.176559 1.430844,0.637351 1.889714,1.094223 0.459989,0.457984 0.923287,1.251136 1.10386,1.889777 0.171146,0.605309 0.173312,1.596417 0.0048,2.202462 -0.177781,0.639425 -0.637607,1.434602 -1.095591,1.894591 -0.457973,0.459979 -1.251135,0.923277 -1.889776,1.10385 -0.605309,0.171146 -1.596413,0.173312 -2.202463,0.0048 -0.63942,-0.177781 -1.4346,-0.637607 -1.89458,-1.09559 -0.45999,-0.457984 -0.92329,-1.251136 -1.10385,-1.889777 -0.17115,-0.60531 -0.17332,-1.596418 -0.005,-2.202462 0.18457,-0.66386 0.63193,-1.425467 1.12531,-1.915814 0.48591,-0.482379 1.25675,-0.931382 1.89464,-1.102512 z m 12.947087,19.749579 -2.62472,-0.04256 -2.624721,-0.04256 -1.707459,-1.700013 c -0.939104,-0.935004 -1.771052,-1.636128 -1.848793,-1.558058 -0.07776,0.07805 -0.943997,0.222963 -1.925024,0.321981 -0.98104,0.09901 -2.39793,0.08774 -3.14867,-0.02454 l -1.36495,-0.205061 -1.62269,1.629796 -1.62269,1.629795 -2.42406,-0.0055 c -1.33322,-0.0029 -2.4797,0.106371 -2.54771,0.243137 8.23232,-1.84337 13.681336,-1.948409 23.461487,-0.246417 z m 0.589871,-17.978698 0.274208,1.650877 4.059625,-0.0025 4.059637,-0.0026 0.0047,2.145277 0.0047,2.145266 -4.294002,0.01545 -4.294001,0.01545 -0.36312,0.855828 c -0.199715,0.470694 -0.692743,1.438147 -1.095627,2.149902 -0.427872,0.755895 -1.288367,1.801617 -2.069079,2.514467 -1.311609,1.197603 -1.327845,1.229067 -0.868403,1.685666 0.364592,0.362353 3.303158,0.459534 13.283684,0.4393 7.04855,-0.01432 12.865938,-0.0766 12.927541,-0.138471 0.0616,-0.0619 -1.221192,-3.510591 -2.85064,-7.663823 l -2.962637,-7.551325 -8.014585,0.01425 c -4.408033,0.0078 -8.028461,0.02818 -8.045397,0.04519 -0.01697,0.01704 0.0926,0.773804 0.243417,1.68178 z M -115.56935,27.83379 c 0.37962,-0.133724 1.81586,0.130961 3.58578,0.660816 l 2.95248,0.883872 3.00517,-0.88583 c 2.26157,-0.666642 3.19383,-0.808156 3.76771,-0.571917 0.59051,0.243089 0.83411,0.485634 1.07979,1.075085 0.23856,0.572401 0.10182,1.503858 -0.55136,3.756048 l -0.8686,2.994866 0.88689,3.008535 c 0.69758,2.366318 0.81185,3.164794 0.53531,3.740529 -0.23677,0.492946 -0.59011,0.847825 -1.08202,1.086765 -0.57463,0.279089 -1.37395,0.168129 -3.74716,-0.520215 l -3.0167,-0.874995 -2.9512,0.897554 c -2.29719,0.698669 -3.12804,0.824755 -3.74926,0.569027 -0.62717,-0.258176 -0.86676,-0.493302 -1.1187,-1.097774 -0.24268,-0.582272 -0.10936,-1.497531 0.54852,-3.765686 l 0.86912,-2.99644 -0.87818,-2.978939 c -0.57446,-1.948696 -0.79123,-3.212988 -0.62678,-3.655673 0.13827,-0.372207 0.35817,-0.772542 0.48866,-0.889642 0.1306,-0.116999 0.52223,-0.313299 0.87053,-0.435986 z m 4.13727,6.724552 c 0.24695,0.846055 0.22955,1.673105 -0.0555,2.638005 l -0.41517,1.405559 0.79513,-0.193436 c 0.43731,-0.106402 1.13185,-0.276063 1.54341,-0.377035 0.41156,-0.100963 1.25534,-0.02032 1.87509,0.179198 0.61973,0.199521 1.2028,0.286431 1.29569,0.193128 0.0929,-0.0933 0.008,-0.720527 -0.18775,-1.393827 -0.21452,-0.736336 -0.22682,-1.68967 -0.0309,-2.392222 0.17918,-0.642402 0.235,-1.25842 0.12402,-1.368912 -0.11098,-0.110492 -0.72673,-0.05195 -1.36836,0.130002 -0.70168,0.199023 -1.65507,0.190894 -2.39233,-0.02021 -0.67416,-0.193219 -1.29715,-0.279566 -1.38444,-0.191889 -0.0872,0.08766 0.003,0.713995 0.20102,1.391836 z m -13.18419,-61.953289 1.49997,1.493431 1.49345,-1.499983 1.49343,-1.499974 1.49998,1.493431 1.49997,1.493431 -1.49344,1.499984 -1.49344,1.499973 1.49998,1.493441 1.49998,1.493441 -1.49343,1.499973 -1.49343,1.499974 -1.49999,-1.493441 -1.49997,-1.493431 -1.49344,1.499973 -1.49343,1.499973 -1.49998,-1.493431 -1.49998,-1.493431 1.49344,-1.499983 1.49343,-1.499973 -1.49997,-1.493431 -1.49997,-1.493441 1.49344,-1.499974 1.49343,-1.499973 z m 0.0131,5.986819 1.49998,1.493431 1.49343,-1.499983 1.49343,-1.499974 -1.49998,-1.493431 -1.49997,-1.493431 -1.49343,1.499964 -1.49344,1.499983 z m 87.907665,24.621689 c 0.379635,-0.133713 1.815875,0.130964 3.585778,0.660816 l 2.952495,0.883882 3.005154,-0.885829 c 2.261576,-0.666645 3.19383,-0.808166 3.767706,-0.571928 0.590509,0.24309 0.834128,0.485644 1.079791,1.075085 0.238559,0.572401 0.101837,1.5038687 -0.551362,3.7560377 l -0.868583,2.9948853 0.886887,3.008535 c 0.697566,2.366313 0.811838,3.164795 0.5353,3.740519 -0.236773,0.492946 -0.590102,0.847836 -1.082023,1.086765 -0.574615,0.279099 -1.373946,0.168129 -3.74714,-0.520214 l -3.016714,-0.874995 -2.951186,0.897563 c -2.297204,0.698663 -3.128038,0.824755 -3.749276,0.569017 -0.627155,-0.258176 -0.866756,-0.493291 -1.118684,-1.097764 -0.242683,-0.582271 -0.10937,-1.497542 0.548506,-3.765686 l 0.869118,-2.99644 -0.878164,-2.9789493 c -0.574456,-1.948696 -0.791229,-3.2129867 -0.626777,-3.6556717 0.138257,-0.372196 0.358161,-0.772532 0.488643,-0.889642 0.130601,-0.116998 0.522234,-0.313299 0.870531,-0.435986 z m 4.134202,6.7163107 c 0.214517,0.7363253 0.22681,1.6896593 0.0309,2.3922123 -0.17919,0.642402 -0.234988,1.25842 -0.124015,1.368911 0.110973,0.110492 0.724434,0.05263 1.363231,-0.128541 0.662334,-0.187874 1.661212,-0.190055 2.324358,-0.0051 0.63959,0.178403 1.253304,0.233569 1.363795,0.122596 0.110492,-0.110984 0.05263,-0.724444 -0.128551,-1.363252 -0.187864,-0.662323 -0.190055,-1.661201 -0.0051,-2.3243483 0.178403,-0.639589 0.233569,-1.253303 0.122595,-1.363785 -0.110983,-0.110492 -0.726739,-0.05205 -1.368365,0.129992 -0.701684,0.199023 -1.65506,0.190894 -2.392326,-0.02021 -0.674158,-0.193219 -1.297159,-0.279576 -1.384444,-0.191899 -0.08725,0.08766 0.0021,0.710284 0.197948,1.383595 z"
       id="path4"
       sodipodi:nodetypes="cccccccssccsccsssssscscccccscccccccccccccccccccccccccccccccsccccsccssssccccccccsccssscssscssscsssssscsccsssssssscccccccscscccccccccccccccssssccsccsccsscsssccsscscsssscsscscccssssccscccccccccccccccccccccccccccccccccccccccsscsssccsssscsssscsscsccscsssssccscc" /></g><g
     inkscape:groupmode="layer"
     id="layer2"
     inkscape:label="Layer 2"
     transform="translate(-34.855335,-81.25383)"><rect
       style="fill:#ffffff;fill-opacity:1;stroke:none;stroke-width:1.79387;stroke-dasharray:none;stroke-opacity:1;opacity:1"
       id="rect69"
       width="136.40741"
       height="136.40741"
       x="34.855335"
       y="81.25383" /><g
       id="g13"
       transform="matrix(0.70710678,0.70710678,0.70710678,-0.70710678,-67.533461,233.45102)"
       style="stroke:#000000;stroke-opacity:1;stroke-width:0.4;stroke-dasharray:none"><path
         style="fill:#000000;stroke:#000000;stroke-width:0.4;stroke-opacity:1;stroke-dasharray:none"
         d="m -221.61316,69.001083 c -0.8196,-1.981637 -1.75193,-4.21646 -2.07181,-4.966299 -0.31988,-0.749832 -0.58575,-1.427877 -0.59076,-1.506783 -0.0103,-0.157605 8.06973,-0.265812 8.20467,-0.109754 0.046,0.05319 -0.1228,0.5825 -0.37502,1.176304 -0.25231,0.593699 -1.18282,2.863702 -2.06783,5.044436 l -1.60909,3.964984 z m 1.40342,-8.519312 -4.9239,0.02869 -4.55277,-10.970198 c -2.50404,-6.033611 -4.55925,-11.03385 -4.5671,-11.111606 -0.008,-0.07789 1.67487,-0.811623 3.73935,-1.630844 l 3.75364,-1.489392 3.31421,1.635162 c 1.82279,0.899338 3.5233,1.590756 3.77883,1.536436 0.25552,-0.05439 1.69656,-0.808919 3.20224,-1.676924 l 2.73757,-1.578212 3.76421,1.437932 c 2.07031,0.790884 3.75919,1.502869 3.75305,1.582164 -0.0152,0.196542 -8.85256,21.944842 -8.97663,22.091076 -0.0544,0.06403 -2.31456,0.129492 -5.02269,0.145442 z m 10.86138,-25.711244 -3.39696,-1.362985 -0.13783,-43.472093 -0.1378,-43.472085 3.49699,-0.02294 3.49704,-0.02293 0.14033,44.7358189 c 0.0773,24.6047031 0.0943,44.7909421 0.0378,44.8582991 -0.0566,0.06731 -1.63118,-0.490856 -3.49951,-1.240486 z m -7.04669,-0.183177 c -3.97286,2.207039 -3.15568,2.13774 -6.39362,0.541979 -1.56781,-0.772678 -2.93267,-1.499814 -3.033,-1.615873 -0.10036,-0.116104 -0.24393,-19.730123 -0.31909,-43.586838 l -0.13672,-43.375838 5.75424,-0.0384 5.75424,-0.0384 0.12732,43.5341746 0.12725,43.5341244 z m -14.77223,0.3695 c -1.78545,0.731207 -3.2857,1.264288 -3.33387,1.184641 -0.0479,-0.07965 -0.15254,-20.257122 -0.23192,-44.8388521 l -0.14435,-44.6940719 3.49831,-0.02294 3.49832,-0.02293 0.13754,43.375525 c 0.0757,23.85652 0.0666,43.446199 -0.0201,43.532652 -0.0862,0.0868 -1.61848,0.75539 -3.40393,1.486589 z"
         id="path12"
         sodipodi:nodetypes="sscscscsccscccsccccsssccccccccsccsssscccccsscscccccss" /><path
         style="fill:#000000;stroke:#000000;stroke-opacity:1;stroke-width:0.4;stroke-dasharray:none"
         d="m -215.96828,-119.59329 4.48263,4.49764 -4.49764,4.48261 -4.49762,4.48261 -4.48262,-4.49762 -4.48262,-4.49762 4.49764,-4.48263 4.49762,-4.48261 z m -5.99683,5.97683 1.49421,1.4992 1.49921,-1.4942 1.4992,-1.49421 -1.4942,-1.4992 -1.49421,-1.49921 -1.4992,1.4942 -1.49921,1.4942 z m -0.89765,11.09309 c 1.29572,1.30005 1.55548,1.45995 2.37337,1.46134 0.82742,10e-4 1.07242,-0.15193 2.47196,-1.5468 l 1.55351,-1.54832 -0.0185,12.345706 c -0.0102,6.79014 -0.0687,12.395732 -0.13004,12.456872 -0.0613,0.06113 -0.42247,-0.0057 -0.80252,-0.148557 -0.38002,-0.142852 -1.52202,-0.291798 -2.53778,-0.330992 -1.01574,-0.0392 -2.4236,0.05442 -3.12857,0.208021 l -1.28178,0.279286 0.0227,-12.31819 0.0227,-12.318186 z m -17.77469,31.265151 c 4.43972,0.02252 8.01022,0.178622 7.93443,0.346902 -0.0758,0.168279 -0.23617,0.915031 -0.35642,1.659453 l -0.21864,1.353498 -4.06154,-4.81e-4 -4.06153,-4.82e-4 -0.004,2.145401 -0.004,2.145399 4.36452,0.04019 4.36452,0.0402 0.64934,1.594142 c 0.52719,1.294247 0.97151,1.922677 2.36192,3.340487 1.7002,1.733795 1.70918,1.749749 1.24415,2.215373 -0.36713,0.367315 -3.28306,0.463331 -13.4665,0.442735 l -12.99806,-0.02629 2.84504,-7.2604 c 1.56478,-3.993219 2.95501,-7.444153 3.08941,-7.668744 0.17249,-0.288233 2.61841,-0.396289 8.31655,-0.367384 z m 15.68379,-3.191317 c 0.39031,-0.226809 1.15646,-0.554399 1.70256,-0.72797 0.5461,-0.173577 1.55157,-0.381644 2.23439,-0.462386 0.75232,-0.08896 1.9753,0.104373 3.10391,0.490675 1.64416,0.562758 2.03721,0.814276 3.3539,2.146132 1.33356,1.349357 1.54887,1.700371 2.03423,3.321641 0.29851,0.997131 0.50198,2.292086 0.45212,2.87768 -0.0498,0.585592 -0.33728,1.744854 -0.63876,2.576142 -0.43674,1.204217 -0.83439,1.797218 -1.95637,2.917417 -1.21523,1.212583 -1.66415,1.492561 -3.27222,2.036652 -1.12734,0.38143 -2.35473,0.571317 -3.10572,0.480478 -0.68294,-0.08262 -1.81649,-0.333801 -2.51901,-0.558173 -1.01474,-0.324095 -1.58645,-0.714122 -2.78128,-1.897414 -1.24311,-1.231113 -1.59983,-1.755928 -2.05646,-3.025683 -0.30385,-0.844929 -0.55139,-2.175016 -0.55009,-2.955748 0.001,-0.78073 0.25214,-2.087664 0.55742,-2.904295 0.34493,-0.92275 0.967,-1.942416 1.64338,-2.693772 0.5986,-0.664946 1.40772,-1.394545 1.798,-1.621376 z m 0.48803,5.672763 c -0.19635,0.475947 -0.31558,1.356172 -0.26493,1.956042 0.0507,0.599877 0.32886,1.438084 0.61828,1.862677 0.28937,0.424635 0.89578,1.02571 1.34746,1.335833 0.51544,0.353857 1.33914,0.564701 2.21189,0.566159 0.87276,0.0015 1.69717,-0.206623 2.21379,-0.558755 0.45273,-0.308602 1.07688,-0.930663 1.38699,-1.382361 0.35385,-0.515434 0.56469,-1.339146 0.56614,-2.211897 0.001,-0.872753 -0.20662,-1.697164 -0.55874,-2.213778 -0.3086,-0.452734 -0.90769,-1.06111 -1.33133,-1.351929 -0.42359,-0.290862 -1.26037,-0.571807 -1.85942,-0.624395 -0.59905,-0.05259 -1.458,0.04868 -1.90878,0.225038 -0.45077,0.176365 -1.09966,0.593222 -1.44197,0.926351 -0.34232,0.333118 -0.78304,0.995097 -0.9794,1.471043 z m 24.20152,-2.427788 8.01757,0.01665 0.73024,1.817625 c 0.40164,0.999687 1.74551,4.453446 2.98636,7.675011 l 2.25612,5.8574 -12.9838,-0.02369 c -10.13907,-0.0185 -13.08564,-0.126361 -13.44866,-0.49228 -0.46064,-0.465022 -0.45049,-0.483163 1.25354,-2.209208 1.39512,-1.413185 1.84156,-2.040095 2.37308,-3.332571 l 0.65467,-1.591963 4.36462,-0.02561 4.36462,-0.0256 0.004,-2.145402 0.004,-2.145394 -4.0415,-0.01303 -4.04149,-0.01304 -0.3395,-1.576838 c -0.18673,-0.867261 -0.3015,-1.624511 -0.25505,-1.682777 0.0468,-0.0579 3.69235,-0.09844 8.10201,-0.08928 z"
         id="path13"
         sodipodi:nodetypes="ccccccccccccccccccssscssssscccsssscccccccsssscssssssscssssssssssssssssssssssssssssscsscscsscccccccsss" /></g><rect
       style="fill:#a855f7;fill-opacity:1;stroke:none;stroke-width:1.79387;stroke-dasharray:none;stroke-opacity:1"
       id="rect63"
       width="38.805557"
       height="38.805557"
       x="-102.89352"
       y="145.22685" /><rect
       style="fill:#059669;fill-opacity:1;stroke:none;stroke-width:1.79387;stroke-dasharray:none;stroke-opacity:1"
       id="rect64"
       width="38.805557"
       height="38.805557"
       x="-102.89352"
       y="186.38426" /><rect
       style="fill:#4b5563;fill-opacity:1;stroke:none;stroke-width:1.79387;stroke-dasharray:none;stroke-opacity:1"
       id="rect65"
       width="38.805557"
       height="38.805557"
       x="-102.89352"
       y="227.24768" /><rect
       style="fill:#60a5fa;fill-opacity:1;stroke:none;stroke-width:1.79387;stroke-dasharray:none;stroke-opacity:1"
       id="rect66"
       width="38.805557"
       height="38.805557"
       x="-145.52083"
       y="227.24768" /><rect
       style="fill:#f59e0b;fill-opacity:1;stroke:none;stroke-width:1.79387;stroke-dasharray:none;stroke-opacity:1"
       id="rect67"
       width="38.805557"
       height="38.805557"
       x="-145.52083"
       y="186.97221" /><g
       id="g69"
       transform="translate(0,-12.090246)"
       style="display:inline;paint-order:stroke markers fill"><g
         id="g1"
         transform="translate(0.50404174)"
         style="stroke:#ffffff;stroke-width:3.6;stroke-dasharray:none;stroke-opacity:1;paint-order:stroke markers fill"><g
           id="g63"
           transform="matrix(0.34495166,-0.35592429,0.35059406,0.35019612,182.74689,81.897068)"
           inkscape:transform-center-x="-34.48294"
           inkscape:transform-center-y="34.591936"
           style="display:inline;fill:#60a5fa;fill-opacity:1;stroke:#ffffff;stroke-width:7.26442;stroke-dasharray:none;stroke-opacity:1;paint-order:stroke markers fill"><path
             style="display:none;fill:#08bd7e;fill-opacity:1;stroke:#ffffff;stroke-width:7.26442;stroke-dasharray:none;stroke-opacity:1;paint-order:stroke markers fill"
             d="m -221.61316,69.001083 c -0.8196,-1.981637 -1.75193,-4.21646 -2.07181,-4.966299 -0.31988,-0.749832 -0.58575,-1.427877 -0.59076,-1.506783 -0.0103,-0.157605 8.06973,-0.265812 8.20467,-0.109754 0.046,0.05319 -0.1228,0.5825 -0.37502,1.176304 -0.25231,0.593699 -1.18282,2.863702 -2.06783,5.044436 l -1.60909,3.964984 z m 1.40342,-8.519312 -4.9239,0.02869 -4.55277,-10.970198 c -2.50404,-6.033611 -4.55925,-11.03385 -4.5671,-11.111606 -0.008,-0.07789 1.67487,-0.811623 3.73935,-1.630844 l 3.75364,-1.489392 3.31421,1.635162 c 1.82279,0.899338 3.5233,1.590756 3.77883,1.536436 0.25552,-0.05439 1.69656,-0.808919 3.20224,-1.676924 l 2.73757,-1.578212 3.76421,1.437932 c 2.07031,0.790884 3.75919,1.502869 3.75305,1.582164 -0.0152,0.196542 -8.85256,21.944842 -8.97663,22.091076 -0.0544,0.06403 -2.31456,0.129492 -5.02269,0.145442 z m 10.86138,-25.711244 -3.39696,-1.362985 -0.13783,-43.472093 -0.1378,-43.472085 3.49699,-0.02294 3.49704,-0.02293 0.14033,44.7358189 c 0.0773,24.6047031 0.0943,44.7909421 0.0378,44.8582991 -0.0566,0.06731 -1.63118,-0.490856 -3.49951,-1.240486 z m -7.04669,-0.183177 c -3.97286,2.207039 -3.15568,2.13774 -6.39362,0.541979 -1.56781,-0.772678 -2.93267,-1.499814 -3.033,-1.615873 -0.10036,-0.116104 -0.24393,-19.730123 -0.31909,-43.586838 l -0.13672,-43.375838 5.75424,-0.0384 5.75424,-0.0384 0.12732,43.5341746 0.12725,43.5341244 z m -14.77223,0.3695 c -1.78545,0.731207 -3.2857,1.264288 -3.33387,1.184641 -0.0479,-0.07965 -0.15254,-20.257122 -0.23192,-44.8388521 l -0.14435,-44.6940719 3.49831,-0.02294 3.49832,-0.02293 0.13754,43.375525 c 0.0757,23.85652 0.0666,43.446199 -0.0201,43.532652 -0.0862,0.0868 -1.61848,0.75539 -3.40393,1.486589 z"
             id="path62"
             sodipodi:nodetypes="sscscscsccscccsccccsssccccccccsccsssscccccsscscccccss" /><path
             style="display:inline;fill:#08bd7e;fill-opacity:1;stroke:#ffffff;stroke-width:7.26442;stroke-dasharray:none;stroke-opacity:1;paint-order:stroke markers fill"
             d="m -215.96828,-119.59329 4.48263,4.49764 -4.49764,4.48261 -4.49762,4.48261 -4.48262,-4.49762 -4.48262,-4.49762 4.49764,-4.48263 4.49762,-4.48261 z m -5.99683,5.97683 1.49421,1.4992 1.49921,-1.4942 1.4992,-1.49421 -1.4942,-1.4992 -1.49421,-1.49921 -1.4992,1.4942 -1.49921,1.4942 z m -0.89765,11.09309 c 1.29572,1.30005 1.55548,1.45995 2.37337,1.46134 0.82742,10e-4 1.07242,-0.15193 2.47196,-1.5468 l 1.55351,-1.54832 -0.0185,12.345706 c -0.0102,6.79014 -0.0687,12.395732 -0.13004,12.456872 -0.0613,0.06113 -0.42247,-0.0057 -0.80252,-0.148557 -0.38002,-0.142852 -1.52202,-0.291798 -2.53778,-0.330992 -1.01574,-0.0392 -2.4236,0.05442 -3.12857,0.208021 l -1.28178,0.279286 0.0227,-12.31819 0.0227,-12.318186 z m -17.77469,31.265151 c 4.43972,0.02252 8.01022,0.178622 7.93443,0.346902 -0.0758,0.168279 -0.23617,0.915031 -0.35642,1.659453 l -0.21864,1.353498 -4.06154,-4.81e-4 -4.06153,-4.82e-4 -0.004,2.145401 -0.004,2.145399 4.36452,0.04019 4.36452,0.0402 0.64934,1.594142 c 0.52719,1.294247 0.97151,1.922677 2.36192,3.340487 1.7002,1.733795 1.70918,1.749749 1.24415,2.215373 -0.36713,0.367315 -3.28306,0.463331 -13.4665,0.442735 l -12.99806,-0.02629 2.84504,-7.2604 c 1.56478,-3.993219 2.95501,-7.444153 3.08941,-7.668744 0.17249,-0.288233 2.61841,-0.396289 8.31655,-0.367384 z m 15.68379,-3.191317 c 0.39031,-0.226809 1.15646,-0.554399 1.70256,-0.72797 0.5461,-0.173577 1.55157,-0.381644 2.23439,-0.462386 0.75232,-0.08896 1.9753,0.104373 3.10391,0.490675 1.64416,0.562758 2.03721,0.814276 3.3539,2.146132 1.33356,1.349357 1.54887,1.700371 2.03423,3.321641 0.29851,0.997131 0.50198,2.292086 0.45212,2.87768 -0.0498,0.585592 -0.33728,1.744854 -0.63876,2.576142 -0.43674,1.204217 -0.83439,1.797218 -1.95637,2.917417 -1.21523,1.212583 -1.66415,1.492561 -3.27222,2.036652 -1.12734,0.38143 -2.35473,0.571317 -3.10572,0.480478 -0.68294,-0.08262 -1.81649,-0.333801 -2.51901,-0.558173 -1.01474,-0.324095 -1.58645,-0.714122 -2.78128,-1.897414 -1.24311,-1.231113 -1.59983,-1.755928 -2.05646,-3.025683 -0.30385,-0.844929 -0.55139,-2.175016 -0.55009,-2.955748 0.001,-0.78073 0.25214,-2.087664 0.55742,-2.904295 0.34493,-0.92275 0.967,-1.942416 1.64338,-2.693772 0.5986,-0.664946 1.40772,-1.394545 1.798,-1.621376 z m 0.48803,5.672763 c -0.19635,0.475947 -0.31558,1.356172 -0.26493,1.956042 0.0507,0.599877 0.32886,1.438084 0.61828,1.862677 0.28937,0.424635 0.89578,1.02571 1.34746,1.335833 0.51544,0.353857 1.33914,0.564701 2.21189,0.566159 0.87276,0.0015 1.69717,-0.206623 2.21379,-0.558755 0.45273,-0.308602 1.07688,-0.930663 1.38699,-1.382361 0.35385,-0.515434 0.56469,-1.339146 0.56614,-2.211897 0.001,-0.872753 -0.20662,-1.697164 -0.55874,-2.213778 -0.3086,-0.452734 -0.90769,-1.06111 -1.33133,-1.351929 -0.42359,-0.290862 -1.26037,-0.571807 -1.85942,-0.624395 -0.59905,-0.05259 -1.458,0.04868 -1.90878,0.225038 -0.45077,0.176365 -1.09966,0.593222 -1.44197,0.926351 -0.34232,0.333118 -0.78304,0.995097 -0.9794,1.471043 z m 24.20152,-2.427788 8.01757,0.01665 0.73024,1.817625 c 0.40164,0.999687 1.74551,4.453446 2.98636,7.675011 l 2.25612,5.8574 -12.9838,-0.02369 c -10.13907,-0.0185 -13.08564,-0.126361 -13.44866,-0.49228 -0.46064,-0.465022 -0.45049,-0.483163 1.25354,-2.209208 1.39512,-1.413185 1.84156,-2.040095 2.37308,-3.332571 l 0.65467,-1.591963 4.36462,-0.02561 4.36462,-0.0256 0.004,-2.145402 0.004,-2.145394 -4.0415,-0.01303 -4.04149,-0.01304 -0.3395,-1.576838 c -0.18673,-0.867261 -0.3015,-1.624511 -0.25505,-1.682777 0.0468,-0.0579 3.69235,-0.09844 8.10201,-0.08928 z"
             id="path63"
             sodipodi:nodetypes="ccccccccccccccccccssscssssscccsssscccccccsssscssssssscssssssssssssssssssssssssssssscsscscsscccccccsss" /><path
             style="fill:#08bd7e;fill-opacity:1;stroke-width:7.52318"
             d="m -208.43382,-51.413745 c -0.31719,-0.122781 -5.8003,-0.260978 -12.18466,-0.307105 -12.22604,-0.08833 -12.30227,-0.0819 -12.84457,1.083798 -0.13567,0.291648 -0.26068,2.044314 -0.27779,3.894814 l -0.0308,3.36454 2.81121,0.06206 c 2.49176,0.055 2.86396,0.115671 3.27545,0.533882 0.66368,0.674548 0.85327,1.345226 0.58692,2.076317 -0.45593,1.251508 -0.76612,1.352513 -4.12382,1.342849 l -2.57167,-0.0074 -0.0242,3.641265 -0.0242,3.641264 5.36314,0.06386 c 2.94972,0.03513 5.60838,0.17713 5.90811,0.315578 1.05546,0.487506 1.48445,1.752738 0.93609,2.760875 -0.52558,0.966288 -1.10007,1.053441 -6.74663,1.023526 l -5.4885,-0.02908 -0.0242,3.638717 -0.0241,3.638715 2.71579,0.03114 c 3.0063,0.03448 3.53964,0.222204 3.94623,1.389048 0.27036,0.775856 0.0825,1.435412 -0.60009,2.107019 -0.41704,0.410334 -0.79,0.463919 -3.28205,0.471552 l -2.81155,0.0086 -0.0212,3.637814 -0.0212,3.637813 5.31794,0.035842 c 2.92487,0.019711 5.60274,0.1512603 5.95082,0.2923247 1.28929,0.5225016 1.56668,2.1916387 0.53322,3.2084655 -0.52785,0.5193339 -0.69464,0.5325774 -6.18672,0.4912098 l -5.64428,-0.042515 -0.0241,3.6311589 -0.0241,3.6311589 2.70035,0.06273 c 2.69746,0.062663 3.26617,0.218906 3.82121,1.0498156 0.3377,0.5055625 0.33059,1.563424 -0.0139,2.0625031 -0.56614,0.8202528 -1.13687,0.9656651 -3.83484,0.9770449 l -2.70085,0.011387 -0.0241,3.6311589 -0.0241,3.6311587 5.64412,0.06478 c 5.451,0.06256 5.66202,0.08299 6.16777,0.597013 0.63103,0.641344 0.78681,1.381017 0.45679,2.168757 -0.48744,1.163453 -0.84629,1.227182 -6.74565,1.197927 l -5.55467,-0.02754 -0.0172,3.63596 -0.0172,3.63596 2.80278,0.05506 c 2.48911,0.04889 2.85485,0.107972 3.268,0.527885 0.66466,0.675525 0.85439,1.345904 0.58793,2.07732 -0.45593,1.251508 -0.76612,1.352512 -4.12382,1.342848 l -2.57168,-0.0074 -0.0241,3.638596 -0.0241,3.638597 5.48818,0.07526 c 5.64625,0.07742 6.21948,0.175486 6.73202,1.151641 0.53474,1.018432 0.0889,2.275349 -0.97307,2.74273 -0.30156,0.132731 -2.96178,0.224185 -5.9116,0.203231 l -5.36332,-0.0381 -0.0242,3.641384 -0.0242,3.641383 2.7158,0.03114 c 3.00629,0.03446 3.53963,0.222202 3.94624,1.389045 0.27034,0.775857 0.0825,1.435413 -0.6001,2.107021 -0.41704,0.410335 -0.79,0.463918 -3.2822,0.471552 l -2.81168,0.0086 -0.0145,3.364708 c -0.0142,3.492643 0.12927,4.21001 0.95554,4.762565 0.66673,0.445863 23.65058,0.723373 24.51815,0.296037 0.41233,-0.203097 0.66189,-0.448382 0.87054,-0.855588 0.36529,-0.712923 1.12928,-108.400363 0.77467,-109.188705 -0.2928,-0.650858 -0.42206,-0.770273 -1.13078,-1.044613 z"
             id="path6" /></g><g
           id="g68"
           transform="matrix(0.35059406,0.34495166,-0.34495166,0.35059406,176.35538,236.31804)"
           inkscape:transform-center-x="34.073894"
           inkscape:transform-center-y="34.482946"
           style="display:inline;fill:#a855f7;fill-opacity:1;stroke:#ffffff;stroke-width:7.72607;stroke-dasharray:none;stroke-opacity:1;paint-order:stroke fill markers"><path
             style="fill:#a855f7;fill-opacity:1;stroke:#ffffff;stroke-width:2.03317624;stroke-dasharray:none;stroke-opacity:1;paint-order:markers fill stroke"
             d="m -221.61316,69.001083 c -0.8196,-1.981637 -1.75193,-4.21646 -2.07181,-4.966299 -0.31988,-0.749832 -0.58575,-1.427877 -0.59076,-1.506783 -0.0103,-0.157605 8.06973,-0.265812 8.20467,-0.109754 0.046,0.05319 -0.1228,0.5825 -0.37502,1.176304 -0.25231,0.593699 -1.18282,2.863702 -2.06783,5.044436 l -1.60909,3.964984 z m 1.40342,-8.519312 -4.9239,0.02869 -4.55277,-10.970198 c -2.50404,-6.033611 -4.55925,-11.03385 -4.5671,-11.111606 -0.008,-0.07789 1.67487,-0.811623 3.73935,-1.630844 l 3.75364,-1.489392 3.31421,1.635162 c 1.82279,0.899338 3.5233,1.590756 3.77883,1.536436 0.25552,-0.05439 1.69656,-0.808919 3.20224,-1.676924 l 2.73757,-1.578212 3.76421,1.437932 c 2.07031,0.790884 3.75919,1.502869 3.75305,1.582164 -0.0152,0.196542 -8.85256,21.944842 -8.97663,22.091076 -0.0544,0.06403 -2.31456,0.129492 -5.02269,0.145442 z m 10.86138,-25.711244 -3.39696,-1.362985 -0.13783,-43.472093 -0.1378,-43.472085 3.49699,-0.02294 3.49704,-0.02293 0.14033,44.7358189 c 0.0773,24.6047031 0.0943,44.7909421 0.0378,44.8582991 -0.0566,0.06731 -1.63118,-0.490856 -3.49951,-1.240486 z m -7.04669,-0.183177 c -3.97286,2.207039 -3.15568,2.13774 -6.39362,0.541979 -1.56781,-0.772678 -2.93267,-1.499814 -3.033,-1.615873 -0.10036,-0.116104 -0.24393,-19.730123 -0.31909,-43.586838 l -0.13672,-43.375838 5.75424,-0.0384 5.75424,-0.0384 0.12732,43.5341746 0.12725,43.5341244 z m -14.77223,0.3695 c -1.78545,0.731207 -3.2857,1.264288 -3.33387,1.184641 -0.0479,-0.07965 -0.15254,-20.257122 -0.23192,-44.8388521 l -0.14435,-44.6940719 3.49831,-0.02294 3.49832,-0.02293 0.13754,43.375525 c 0.0757,23.85652 0.0666,43.446199 -0.0201,43.532652 -0.0862,0.0868 -1.61848,0.75539 -3.40393,1.486589 z"
             id="path67"
             sodipodi:nodetypes="sscscscsccscccsccccsssccccccccsccsssscccccsscscccccss" /><path
             style="fill:#a855f7;fill-opacity:1;stroke:#ffffff;stroke-width:7.72607;stroke-dasharray:none;stroke-opacity:1;paint-order:stroke fill markers"
             d="m -215.96828,-119.59329 4.48263,4.49764 -4.49764,4.48261 -4.49762,4.48261 -4.48262,-4.49762 -4.48262,-4.49762 4.49764,-4.48263 4.49762,-4.48261 z m -5.99683,5.97683 1.49421,1.4992 1.49921,-1.4942 1.4992,-1.49421 -1.4942,-1.4992 -1.49421,-1.49921 -1.4992,1.4942 -1.49921,1.4942 z m -0.89765,11.09309 c 1.29572,1.30005 1.55548,1.45995 2.37337,1.46134 0.82742,10e-4 1.07242,-0.15193 2.47196,-1.5468 l 1.55351,-1.54832 -0.0185,12.345706 c -0.0102,6.79014 -0.0687,12.395732 -0.13004,12.456872 -0.0613,0.06113 -0.42247,-0.0057 -0.80252,-0.148557 -0.38002,-0.142852 -1.52202,-0.291798 -2.53778,-0.330992 -1.01574,-0.0392 -2.4236,0.05442 -3.12857,0.208021 l -1.28178,0.279286 0.0227,-12.31819 0.0227,-12.318186 z m -17.77469,31.265151 c 4.43972,0.02252 8.01022,0.178622 7.93443,0.346902 -0.0758,0.168279 -0.23617,0.915031 -0.35642,1.659453 l -0.21864,1.353498 -4.06154,-4.81e-4 -4.06153,-4.82e-4 -0.004,2.145401 -0.004,2.145399 4.36452,0.04019 4.36452,0.0402 0.64934,1.594142 c 0.52719,1.294247 0.97151,1.922677 2.36192,3.340487 1.7002,1.733795 1.70918,1.749749 1.24415,2.215373 -0.36713,0.367315 -3.28306,0.463331 -13.4665,0.442735 l -12.99806,-0.02629 2.84504,-7.2604 c 1.56478,-3.993219 2.95501,-7.444153 3.08941,-7.668744 0.17249,-0.288233 2.61841,-0.396289 8.31655,-0.367384 z m 15.68379,-3.191317 c 0.39031,-0.226809 1.15646,-0.554399 1.70256,-0.72797 0.5461,-0.173577 1.55157,-0.381644 2.23439,-0.462386 0.75232,-0.08896 1.9753,0.104373 3.10391,0.490675 1.64416,0.562758 2.03721,0.814276 3.3539,2.146132 1.33356,1.349357 1.54887,1.700371 2.03423,3.321641 0.29851,0.997131 0.50198,2.292086 0.45212,2.87768 -0.0498,0.585592 -0.33728,1.744854 -0.63876,2.576142 -0.43674,1.204217 -0.83439,1.797218 -1.95637,2.917417 -1.21523,1.212583 -1.66415,1.492561 -3.27222,2.036652 -1.12734,0.38143 -2.35473,0.571317 -3.10572,0.480478 -0.68294,-0.08262 -1.81649,-0.333801 -2.51901,-0.558173 -1.01474,-0.324095 -1.58645,-0.714122 -2.78128,-1.897414 -1.24311,-1.231113 -1.59983,-1.755928 -2.05646,-3.025683 -0.30385,-0.844929 -0.55139,-2.175016 -0.55009,-2.955748 0.001,-0.78073 0.25214,-2.087664 0.55742,-2.904295 0.34493,-0.92275 0.967,-1.942416 1.64338,-2.693772 0.5986,-0.664946 1.40772,-1.394545 1.798,-1.621376 z m 0.48803,5.672763 c -0.19635,0.475947 -0.31558,1.356172 -0.26493,1.956042 0.0507,0.599877 0.32886,1.438084 0.61828,1.862677 0.28937,0.424635 0.89578,1.02571 1.34746,1.335833 0.51544,0.353857 1.33914,0.564701 2.21189,0.566159 0.87276,0.0015 1.69717,-0.206623 2.21379,-0.558755 0.45273,-0.308602 1.07688,-0.930663 1.38699,-1.382361 0.35385,-0.515434 0.56469,-1.339146 0.56614,-2.211897 0.001,-0.872753 -0.20662,-1.697164 -0.55874,-2.213778 -0.3086,-0.452734 -0.90769,-1.06111 -1.33133,-1.351929 -0.42359,-0.290862 -1.26037,-0.571807 -1.85942,-0.624395 -0.59905,-0.05259 -1.458,0.04868 -1.90878,0.225038 -0.45077,0.176365 -1.09966,0.593222 -1.44197,0.926351 -0.34232,0.333118 -0.78304,0.995097 -0.9794,1.471043 z m 24.20152,-2.427788 8.01757,0.01665 0.73024,1.817625 c 0.40164,0.999687 1.74551,4.453446 2.98636,7.675011 l 2.25612,5.8574 -12.9838,-0.02369 c -10.13907,-0.0185 -13.08564,-0.126361 -13.44866,-0.49228 -0.46064,-0.465022 -0.45049,-0.483163 1.25354,-2.209208 1.39512,-1.413185 1.84156,-2.040095 2.37308,-3.332571 l 0.65467,-1.591963 4.36462,-0.02561 4.36462,-0.0256 0.004,-2.145402 0.004,-2.145394 -4.0415,-0.01303 -4.04149,-0.01304 -0.3395,-1.576838 c -0.18673,-0.867261 -0.3015,-1.624511 -0.25505,-1.682777 0.0468,-0.0579 3.69235,-0.09844 8.10201,-0.08928 z"
             id="path68"
             sodipodi:nodetypes="ccccccccccccccccccssscssssscccsssscccccccsssscssssssscssssssssssssssssssssssssssssscsscscsscccccccsss" /></g></g><path
         style="display:inline;fill:#4b5563;fill-opacity:1;stroke:#ffffff;stroke-width:2.3;stroke-dasharray:none;stroke-opacity:1;paint-order:stroke markers fill"
         d="m 119.01393,172.79162 c -0.14235,-0.072 -0.30308,-0.25684 -0.35719,-0.41069 -0.0765,-0.21726 0.0418,-0.90948 0.52893,-3.09959 l 0.62732,-2.81986 -0.18857,-0.54577 c -0.1037,-0.30018 -0.19008,-0.82408 -0.19194,-1.16423 -0.001,-0.34016 0.0703,-0.87948 0.16022,-1.19849 0.09,-0.31902 0.29115,-0.767 0.447,-0.99551 0.15586,-0.22851 0.43619,-0.51845 0.62299,-0.64433 0.18679,-0.12587 0.38469,-0.24388 0.43977,-0.26226 0.0628,-0.0209 0.0901,-2.07449 0.0731,-5.5099 l -0.0269,-5.47652 -8.8063,3.72826 c -6.26756,2.65344 -8.92008,3.72911 -9.20097,3.7312 -0.28687,6.6e-4 -2.27957,-0.79174 -7.295153,-2.90639 -3.79526,-1.60014 -8.837199,-3.72871 -11.204326,-4.73016 -2.367123,-1.00145 -4.393675,-1.90209 -4.503436,-2.00141 -0.109777,-0.0993 -0.252898,-0.34215 -0.318048,-0.53958 -0.06519,-0.19742 -0.09018,-0.50831 -0.05557,-0.69085 0.03458,-0.18255 0.168172,-0.46277 0.296901,-0.62272 0.188194,-0.23379 2.42996,-1.21284 11.437338,-4.99506 8.345361,-3.5042 11.309614,-4.70499 11.620134,-4.70721 0.31998,-0.003 2.9844,1.08357 11.4638,4.6719 6.07583,2.57118 11.14849,4.74101 11.27259,4.82183 0.12411,0.0808 0.30341,0.34131 0.39844,0.57881 0.10798,0.26985 0.14882,0.55959 0.10891,0.77236 -0.0351,0.18729 -0.17653,0.4744 -0.31423,0.63803 -0.17251,0.20504 -0.70575,0.48737 -1.7154,0.90829 l -1.4651,0.61077 v 5.92124 5.92123 l 0.40441,0.36536 c 0.22242,0.20095 0.5116,0.61118 0.64262,0.91162 0.16008,0.36709 0.25375,0.82527 0.28558,1.39686 0.035,0.62588 -3.4e-4,1.00287 -0.13387,1.42686 l -0.18126,0.57623 0.81339,2.87332 0.81339,2.87332 -0.21245,0.28535 c -0.11685,0.15696 -0.33003,0.32728 -0.47372,0.37849 -0.191,0.0681 -0.35632,0.0429 -0.61466,-0.0937 -0.19436,-0.10274 -0.54097,-0.28533 -0.77025,-0.40578 -0.33966,-0.17843 -0.6025,-0.21898 -1.41941,-0.21898 -0.95602,0 -1.03728,0.0182 -1.75073,0.39081 -0.41148,0.21495 -0.80449,0.39013 -0.87334,0.38928 -0.0689,-6.6e-4 -0.24164,-0.0604 -0.38398,-0.13247 z m -18.08328,-4.45663 c -0.51587,-0.053 -1.441033,-0.19192 -2.055922,-0.30883 -0.614891,-0.11689 -1.529385,-0.3308 -2.032227,-0.47534 -0.502829,-0.14454 -1.35976,-0.42778 -1.904296,-0.62943 -0.54453,-0.20164 -1.53538,-0.63826 -2.201892,-0.97025 -0.666509,-0.33199 -1.609841,-0.86304 -2.096293,-1.18013 -0.486441,-0.31709 -1.013531,-0.74575 -1.171296,-0.95259 -0.157759,-0.20684 -0.349636,-0.55203 -0.426377,-0.76709 -0.107622,-0.30155 -0.14059,-1.36554 -0.144122,-4.64999 -0.004,-4.00761 0.0065,-4.25594 0.177804,-4.20733 0.100315,0.0284 3.090016,1.28811 6.643798,2.79933 l 6.461423,2.74769 0.93795,6.6e-4 0.93795,6.6e-4 6.57091,-2.7878 c 3.614,-1.53328 6.60563,-2.7878 6.64806,-2.7878 0.0424,0 0.0635,1.98143 0.0467,4.40316 -0.0295,4.28302 -0.0365,4.41452 -0.25525,4.82001 -0.12372,0.22928 -0.35821,0.54098 -0.52109,0.69266 -0.16286,0.15168 -0.62441,0.48587 -1.02564,0.74263 -0.40125,0.25676 -1.26885,0.73714 -1.928,1.06752 -0.65919,0.33037 -1.69092,0.78597 -2.29278,1.01248 -0.60185,0.22648 -1.7044,0.56827 -2.45015,0.75952 -0.74573,0.19124 -1.89472,0.42378 -2.55329,0.51675 -0.65858,0.093 -1.92435,0.18723 -2.81278,0.20947 -0.88844,0.0222 -2.03743,-0.003 -2.55331,-0.0559 z"
         id="path5"
         inkscape:label="path5"
         sodipodi:insensitive="true" /><text
         xml:space="preserve"
         style="font-style:normal;font-variant:normal;font-weight:bold;font-stretch:normal;font-size:16.0275px;font-family:'Inria Sans';-inkscape-font-specification:'Inria Sans, Bold';font-variant-ligatures:normal;font-variant-caps:normal;font-variant-numeric:normal;font-variant-east-asian:normal;text-align:start;writing-mode:lr-tb;direction:ltr;text-anchor:start;fill:#4b5563;fill-opacity:1;paint-order:stroke markers fill"
         x="75.067055"
         y="203.942"
         id="text68"><tspan
           sodipodi:role="line"
           id="tspan68"
           style="font-style:normal;font-variant:normal;font-weight:bold;font-stretch:normal;font-size:16.0275px;font-family:'Inria Sans';-inkscape-font-specification:'Inria Sans, Bold';font-variant-ligatures:normal;font-variant-caps:normal;font-variant-numeric:normal;font-variant-east-asian:normal;fill:#4b5563;fill-opacity:1;paint-order:stroke markers fill"
           x="75.067055"
           y="203.942">COURSE</tspan></text><text
         xml:space="preserve"
         style="font-style:normal;font-variant:normal;font-weight:normal;font-stretch:normal;font-size:10.1884px;font-family:'Vertograd Unicode';-inkscape-font-specification:'Vertograd Unicode, Normal';font-variant-ligatures:normal;font-variant-caps:normal;font-variant-numeric:normal;font-variant-east-asian:normal;text-align:start;writing-mode:lr-tb;direction:ltr;text-anchor:start;fill:#60a5fa;fill-opacity:1;paint-order:stroke markers fill"
         x="87.531929"
         y="213.07404"
         id="text69"><tspan
           sodipodi:role="line"
           id="tspan69"
           style="font-style:normal;font-variant:normal;font-weight:normal;font-stretch:normal;font-size:10.1884px;font-family:'Vertograd Unicode';-inkscape-font-specification:'Vertograd Unicode, Normal';font-variant-ligatures:normal;font-variant-caps:normal;font-variant-numeric:normal;font-variant-east-asian:normal;fill:#60a5fa;fill-opacity:1;paint-order:stroke markers fill"
           x="87.531929"
           y="213.07404"><tspan
             style="fill:#08bd7e;fill-opacity:1"
             id="tspan6">CLA</tspan><tspan
             style="fill:#a855f7;fill-opacity:1;paint-order:stroke markers fill"
             id="tspan70">SH</tspan></tspan></text></g></g></svg>
